<svg width="36" height="36" viewBox="0 0 36 36" fill="none" xmlns="http://www.w3.org/2000/svg">
<g id="ant-design:flag-filled">
<path id="Vector" d="M30.9375 10.7227H21.9375V6.75C21.9375 6.12773 21.4348 5.625 20.8125 5.625H6.46875V4.21875C6.46875 4.06406 6.34219 3.9375 6.1875 3.9375H4.21875C4.06406 3.9375 3.9375 4.06406 3.9375 4.21875V31.7812C3.9375 31.9359 4.06406 32.0625 4.21875 32.0625H6.1875C6.34219 32.0625 6.46875 31.9359 6.46875 31.7812V22.5H15.1875V26.4727C15.1875 27.0949 15.6902 27.5977 16.3125 27.5977H30.9375C31.5598 27.5977 32.0625 27.0949 32.0625 26.4727V11.8477C32.0625 11.2254 31.5598 10.7227 30.9375 10.7227Z" fill="#F24E1E"/>
</g>
</svg>
