<svg width="54" height="36" viewBox="0 0 54 36" fill="none" xmlns="http://www.w3.org/2000/svg">
<path d="M45.8262 17.1492L25.9031 5.62148C25.7502 5.53359 25.5551 5.48438 25.3494 5.48438H20.6824C20.2922 5.48438 20.1129 5.80781 20.4082 5.97656L38.8758 16.6641H8.01562C7.78359 16.6641 7.59375 16.7906 7.59375 16.9453V19.0547C7.59375 19.2094 7.78359 19.3359 8.01562 19.3359H38.8705L20.4029 30.0234C20.1076 30.1957 20.2869 30.5156 20.6771 30.5156H25.5023C25.6025 30.5156 25.7027 30.491 25.7766 30.4453L45.8262 18.8508C46.0087 18.7449 46.1551 18.6142 46.2554 18.4675C46.3557 18.3207 46.4076 18.1613 46.4076 18C46.4076 17.8387 46.3557 17.6793 46.2554 17.5325C46.1551 17.3858 46.0087 17.2551 45.8262 17.1492Z" fill="#FF3F00"/>
</svg>
