<svg width="54" height="36" viewBox="0 0 54 36" fill="none" xmlns="http://www.w3.org/2000/svg">
<path d="M45.9843 16.6641H15.1295L33.597 5.97656C33.8924 5.8043 33.7131 5.48438 33.3228 5.48438H28.6558C28.4502 5.48438 28.2551 5.53359 28.1021 5.62148L8.1738 17.1492C7.99128 17.2547 7.8449 17.3851 7.74458 17.5316C7.64426 17.6781 7.59234 17.8372 7.59234 17.9982C7.59234 18.1593 7.64426 18.3184 7.74458 18.4649C7.8449 18.6114 7.99128 18.7418 8.1738 18.8473L28.2181 30.4453C28.2972 30.491 28.3922 30.5156 28.4924 30.5156H33.3176C33.7078 30.5156 33.8871 30.1922 33.5918 30.0234L15.1295 19.3359H45.9843C46.2164 19.3359 46.4062 19.2094 46.4062 19.0547V16.9453C46.4062 16.7906 46.2164 16.6641 45.9843 16.6641Z" fill="black"/>
</svg>
