<svg width="511" height="392" viewBox="0 0 511 392" fill="none" xmlns="http://www.w3.org/2000/svg">
<g clip-path="url(#clip0_76_2)">
<path d="M510.75 379.211C510.75 372.16 476.164 366.445 433.5 366.445C390.836 366.445 356.25 372.16 356.25 379.211C356.25 386.262 390.836 391.977 433.5 391.977C476.164 391.977 510.75 386.262 510.75 379.211Z" fill="#3F3D56"/>
<path d="M498.84 332.207C498.688 359.637 482.348 369.121 462.262 369.008C461.797 369.008 461.332 369 460.871 368.984C459.941 368.961 459.02 368.914 458.109 368.844C439.988 367.457 425.957 357.312 426.098 331.805C426.242 305.41 460.121 272.281 462.664 269.832C462.664 269.832 462.664 269.832 462.668 269.832C462.762 269.738 462.813 269.691 462.813 269.691C462.813 269.691 498.992 304.785 498.84 332.207Z" fill="#FF3F00"/>
<path d="M460.965 364.809L474.367 346.27L460.918 366.848L460.871 368.984C459.941 368.961 459.02 368.914 458.109 368.844L459.691 341.414L459.684 341.199L459.707 341.16L459.859 338.57L446.602 317.789L459.91 336.625L459.938 337.176L461.137 316.453L449.809 294.992L461.297 312.809L462.664 269.832L462.668 269.691V269.832L462.293 303.727L473.758 290.352L462.227 306.645L461.824 325.207L472.562 307.453L461.766 327.934L461.539 338.258L477.121 313.547L461.461 341.855L460.965 364.809Z" fill="#3F3D56"/>
<path d="M450.574 99.2852C450.574 112.75 439.672 123.664 426.227 123.664C412.781 123.664 401.879 112.75 401.879 99.2852C401.879 85.8242 412.781 74.9102 426.227 74.9102C439.672 74.9102 450.574 85.8242 450.574 99.2852Z" fill="#2F2E41"/>
<path d="M439.137 107.805C439.137 116.945 431.734 124.359 422.602 124.359C413.473 124.359 406.07 116.945 406.07 107.805C406.07 98.6602 413.473 91.25 422.602 91.25C431.734 91.25 439.137 98.6602 439.137 107.805Z" fill="#FFB8B8"/>
<path d="M412.773 116.754C412.773 116.754 419.922 133.309 416.348 135.098C412.773 136.887 410.984 144.941 410.984 144.941L420.367 164.629L433.328 172.68H440.926C440.926 172.68 448.52 138.676 445.84 134.648C443.16 130.621 433.328 128.387 433.328 128.387C433.328 128.387 431.094 123.016 431.988 118.094C432.883 113.172 412.773 116.754 412.773 116.754Z" fill="#FFB8B8"/>
<path d="M402.047 163.734L390.43 154.336C390.43 154.336 369.426 139.57 372.109 150.309C374.789 161.047 386.855 161.941 386.855 161.941L406.965 178.051L402.047 163.734Z" fill="#FFB8B8"/>
<path d="M401.152 212.949C401.152 212.949 395.793 235.32 401.152 265.746L403.387 277.828C403.387 277.828 403.387 287.223 405.621 290.805C405.621 290.805 411.43 344.047 414.559 344.047C417.687 344.047 427.52 342.258 428.414 340.914C429.305 339.574 410.984 210.711 410.984 210.711L401.152 212.949Z" fill="#2F2E41"/>
<path d="M415.828 340.473L408.906 366.16C408.906 366.16 395.062 374.312 403.613 375.945C412.164 377.574 420.715 374.312 420.715 374.312L424.789 362.488L428.859 360.043V372.684H430.082L432.93 355.969C432.93 355.969 432.523 347.406 430.082 346.59C427.637 345.773 426.414 341.289 426.414 341.289L415.828 340.473Z" fill="#2F2E41"/>
<path d="M399.367 212.055C399.367 212.055 402.941 225.477 404.281 227.715C404.281 227.715 406.07 265.746 411.879 278.723L418.133 295.277C418.133 295.277 428.414 344.047 425.73 349.418C425.73 349.418 439.582 352.547 440.477 349.418C440.477 349.418 440.031 323.465 441.371 319.887C442.711 316.305 444.945 296.621 434.223 282.301V238.902C434.223 238.902 451.203 224.582 441.371 206.238C431.539 187.895 399.367 212.055 399.367 212.055Z" fill="#2F2E41"/>
<path d="M427.07 346.73L419.477 374.922C419.477 374.922 404.281 383.867 413.664 385.66C423.051 387.449 432.434 383.867 432.434 383.867L436.902 370.895L441.371 368.207V382.078H442.711L445.84 363.734C445.84 363.734 445.395 354.34 442.711 353.445C440.031 352.547 438.691 347.625 438.691 347.625L427.07 346.73Z" fill="#2F2E41"/>
<path d="M417.32 131.754C417.32 131.754 406.07 138.23 406.07 138.676C406.07 139.125 407.41 146.281 407.41 146.281C407.41 146.281 393.559 160.152 402.941 172.234C402.941 172.234 406.07 174.473 406.07 181.629V188.789C406.07 188.789 379.703 205.344 386.406 210.711C393.109 216.082 400.262 215.188 402.496 218.32C404.73 221.449 417.687 215.633 420.367 214.738C423.051 213.844 423.496 212.949 425.73 216.082C427.965 219.215 440.477 213.844 440.477 213.844C440.477 213.844 448.52 211.609 450.309 211.609C451.414 211.594 452.492 211.285 453.437 210.711L434.223 191.027L443.828 166.641C443.828 166.641 415.453 148.969 415.453 144.047C415.453 139.125 417.32 131.754 417.32 131.754Z" fill="#3F3D56"/>
<path d="M434.668 132.859C434.668 132.859 428.859 140.914 433.328 152.098C437.797 163.285 444.945 176.262 444.945 176.262L433.773 179.84H423.496C423.496 179.84 402.047 176.262 404.281 184.312C406.516 192.367 421.711 188.789 421.711 188.789H430.648C430.648 188.789 450.754 191.027 453.437 187.445C453.437 187.445 460.586 187 457.457 172.68C454.332 158.363 445.199 133.855 445.199 133.855L434.668 132.859Z" fill="#FFB8B8"/>
<path d="M434.98 92.4375C434.98 88.0508 428 84.4961 419.387 84.4961C410.777 84.4961 403.793 88.0508 403.793 92.4375C403.793 96.8242 410.777 100.383 419.387 100.383C428 100.383 434.98 96.8242 434.98 92.4375Z" fill="#2F2E41"/>
<path d="M441.148 106.684C441.148 103.965 440.148 101.762 438.914 101.762C437.68 101.762 436.68 103.965 436.68 106.684C436.68 109.402 437.68 111.605 438.914 111.605C440.148 111.605 441.148 109.402 441.148 106.684Z" fill="#FFB8B8"/>
<path d="M450.531 77.6016C450.531 85.0156 444.531 91.0234 437.125 91.0234C429.723 91.0234 423.719 85.0156 423.719 77.6016C423.719 70.1875 429.723 64.1797 437.125 64.1797C444.531 64.1797 450.531 70.1875 450.531 77.6016Z" fill="#2F2E41"/>
<path d="M33.0664 129.184L32.0859 128.973C32.2969 127.992 32.5156 127.012 32.7422 126.031L33.7148 126.262C33.4922 127.23 33.2734 128.207 33.0664 129.184Z" fill="#FF3F00"/>
<path d="M347.945 120.91C347.43 119.004 346.875 117.078 346.289 115.184L347.246 114.891C347.832 116.793 348.395 118.73 348.91 120.652L347.945 120.91ZM35.1758 120.473L34.2109 120.211C34.7344 118.285 35.3008 116.34 35.8984 114.434L36.8516 114.73C36.2578 116.629 35.6953 118.559 35.1758 120.473ZM344.43 109.535C343.773 107.664 343.078 105.785 342.359 103.953L343.289 103.59C344.012 105.434 344.715 107.32 345.371 109.203L344.43 109.535ZM38.7383 109.059L37.7969 108.723C38.4609 106.84 39.1719 104.945 39.9062 103.09L40.8359 103.457C40.1055 105.301 39.3984 107.184 38.7383 109.059ZM340.086 98.4531C339.297 96.6406 338.465 94.8203 337.609 93.0391L338.512 92.6016C339.371 94.3984 340.211 96.2305 341.004 98.0508L340.086 98.4531ZM43.1367 97.9414L42.2227 97.5391C43.0234 95.7109 43.8711 93.875 44.7422 92.082L45.6406 92.5195C44.7773 94.3008 43.9336 96.1289 43.1367 97.9414ZM334.934 87.7148C334.012 85.9648 333.047 84.207 332.066 82.4961L332.934 81.9961C333.918 83.7188 334.891 85.4844 335.82 87.25L334.934 87.7148ZM48.3438 87.1914L47.4609 86.7188C48.3945 84.957 49.375 83.1875 50.375 81.4648L51.2383 81.9688C50.2461 83.6797 49.2734 85.4375 48.3438 87.1914ZM329.004 77.3828C327.961 75.707 326.867 74.0234 325.762 72.3867L326.59 71.8242C327.703 73.4727 328.801 75.1641 329.855 76.8516L329.004 77.3828ZM54.3242 76.8555L53.4766 76.3203C54.5391 74.6367 55.6445 72.9453 56.7695 71.2969L57.5938 71.8594C56.4805 73.5 55.3789 75.1797 54.3242 76.8555ZM322.332 67.5078C321.172 65.918 319.957 64.3242 318.727 62.7617L319.512 62.1406C320.75 63.7109 321.973 65.3203 323.141 66.918L322.332 67.5078ZM61.0469 66.9922L60.2422 66.3984C61.4258 64.793 62.6523 63.1875 63.8906 61.6289L64.6758 62.2539C63.4453 63.8008 62.2227 65.3945 61.0469 66.9922ZM314.953 58.1484C313.672 56.6406 312.348 55.1367 311.012 53.6758L311.746 53C313.09 54.4688 314.426 55.9844 315.715 57.5L314.953 58.1484ZM68.4727 57.6523L67.7109 57C69.0078 55.4883 70.3477 53.9766 71.6992 52.5117L72.4336 53.1914C71.0898 54.6484 69.7578 56.1484 68.4727 57.6523ZM306.906 49.3516C305.516 47.9375 304.082 46.5312 302.648 45.1758L303.332 44.4492C304.777 45.8125 306.219 47.2266 307.617 48.6484L306.906 49.3516ZM76.5547 48.8828L75.8477 48.1758C77.25 46.7617 78.6992 45.3516 80.1484 43.9961L80.832 44.7266C79.3906 46.0781 77.9531 47.4766 76.5547 48.8828ZM298.234 41.1602C296.746 39.8555 295.215 38.5586 293.684 37.3086L294.312 36.5312C295.855 37.7891 297.398 39.0938 298.895 40.4062L298.234 41.1602ZM85.2578 40.7305L84.6016 39.9727C86.1016 38.668 87.6484 37.3711 89.1953 36.1211L89.8242 36.8984C88.2852 38.1406 86.75 39.4297 85.2578 40.7305ZM288.988 33.625C287.414 32.4336 285.789 31.2539 284.164 30.1172L284.738 29.2969C286.371 30.4414 288.004 31.6289 289.59 32.8281L288.988 33.625ZM94.5273 33.2383L93.9258 32.4375C95.5195 31.2422 97.1562 30.0625 98.7891 28.9297L99.3594 29.7539C97.7383 30.8789 96.1094 32.0508 94.5273 33.2383ZM279.211 26.7891C277.551 25.7148 275.844 24.6562 274.141 23.6406L274.652 22.7812C276.363 23.8008 278.082 24.8672 279.754 25.9453L279.211 26.7891ZM104.312 26.4492L103.773 25.6055C105.449 24.5312 107.168 23.4766 108.879 22.4648L109.387 23.3281C107.688 24.332 105.98 25.3828 104.312 26.4492ZM268.957 20.6875C267.223 19.7383 265.441 18.8086 263.664 17.9219L264.113 17.0273C265.898 17.918 267.691 18.8516 269.434 19.8086L268.957 20.6875ZM114.57 20.3984L114.094 19.5195C115.84 18.5742 117.633 17.6445 119.414 16.7656L119.855 17.6641C118.086 18.5391 116.305 19.457 114.57 20.3984ZM258.273 15.3555C256.477 14.5391 254.633 13.7422 252.793 12.9883L253.172 12.0625C255.02 12.8203 256.879 13.6211 258.688 14.4414L258.273 15.3555ZM125.238 15.125L124.828 14.2109C126.637 13.3984 128.488 12.6055 130.332 11.8594L130.707 12.7852C128.875 13.5312 127.035 14.3164 125.238 15.125ZM247.227 10.8281C245.363 10.1484 243.461 9.48828 241.578 8.87891L241.891 7.92578C243.785 8.54297 245.695 9.20312 247.57 9.89062L247.227 10.8281ZM136.258 10.6523L135.918 9.71094C137.785 9.03516 139.688 8.38281 141.574 7.77344L141.883 8.72656C140.008 9.33203 138.113 9.98047 136.258 10.6523ZM235.863 7.13672C233.961 6.59375 232.023 6.08203 230.102 5.61328L230.34 4.64062C232.27 5.11328 234.223 5.62891 236.137 6.17188L235.863 7.13672ZM147.59 7.00781L147.316 6.04297C149.23 5.50391 151.184 4.99609 153.121 4.52734L153.355 5.5C151.43 5.96484 149.488 6.47266 147.59 7.00781ZM224.289 4.30078C222.352 3.90234 220.383 3.53516 218.43 3.21094L218.598 2.22266C220.559 2.55078 222.543 2.92188 224.488 3.32031L224.289 4.30078ZM159.172 4.20703L158.973 3.22656C160.926 2.83203 162.91 2.46875 164.871 2.14453L165.031 3.13281C163.086 3.45312 161.113 3.81641 159.172 4.20703ZM212.535 2.33203C210.57 2.07812 208.578 1.85547 206.613 1.67578L206.707 0.679688C208.684 0.859375 210.688 1.08203 212.664 1.33984L212.535 2.33203ZM170.93 2.27344L170.805 1.28125C172.773 1.03125 174.781 0.8125 176.766 0.636719L176.855 1.63281C174.883 1.80859 172.887 2.02344 170.93 2.27344ZM200.672 1.23438C198.699 1.125 196.695 1.04688 194.715 1.01172L194.734 0.0078125C196.727 0.046875 198.742 0.125 200.727 0.234375L200.672 1.23438ZM182.801 1.20703L182.746 0.207031C184.73 0.101562 186.746 0.03125 188.738 0L188.754 1C186.777 1.03516 184.773 1.10156 182.801 1.20703Z" fill="#FF3F00"/>
<path d="M350.051 129.738C349.848 128.758 349.633 127.785 349.41 126.812L350.387 126.59C350.609 127.566 350.824 128.547 351.031 129.531L350.051 129.738Z" fill="#FF3F00"/>
<path d="M351.402 195.023L350.418 194.828C350.613 193.852 350.797 192.867 350.973 191.883L351.957 192.059C351.781 193.051 351.594 194.039 351.402 195.023Z" fill="#FF3F00"/>
<path d="M191.5 326.395C190.414 326.395 189.328 326.383 188.246 326.363L188.266 325.359C190.242 325.398 192.234 325.402 194.215 325.371L194.23 326.371C193.32 326.387 192.41 326.395 191.5 326.395ZM200.207 326.164L200.156 325.164C202.133 325.062 204.129 324.918 206.086 324.742L206.176 325.742C204.207 325.918 202.199 326.059 200.207 326.164ZM182.27 326.137C180.285 326.023 178.277 325.875 176.305 325.695L176.398 324.695C178.359 324.879 180.352 325.027 182.324 325.137L182.27 326.137ZM212.121 325.102L211.996 324.105C213.965 323.855 215.941 323.57 217.879 323.254L218.039 324.242C216.094 324.559 214.102 324.848 212.121 325.102ZM170.359 325.035C168.383 324.777 166.395 324.48 164.445 324.156L164.609 323.168C166.547 323.492 168.523 323.785 170.488 324.039L170.359 325.035ZM223.926 323.164L223.727 322.184C225.668 321.789 227.621 321.359 229.531 320.898L229.766 321.871C227.844 322.336 225.879 322.77 223.926 323.164ZM158.562 323.059C156.613 322.66 154.648 322.219 152.727 321.746L152.965 320.773C154.875 321.242 156.824 321.68 158.766 322.078L158.562 323.059ZM235.555 320.363L235.285 319.398C237.184 318.867 239.098 318.293 240.98 317.688L241.285 318.641C239.391 319.25 237.465 319.828 235.555 320.363ZM146.941 320.219C145.031 319.68 143.102 319.09 141.203 318.477L141.512 317.523C143.398 318.133 145.316 318.719 147.215 319.258L146.941 320.219ZM246.93 316.715L246.59 315.773C248.438 315.102 250.301 314.391 252.129 313.648L252.504 314.578C250.664 315.32 248.789 316.039 246.93 316.715ZM135.535 316.52C133.664 315.836 131.785 315.105 129.941 314.355L130.32 313.426C132.152 314.176 134.02 314.898 135.879 315.578L135.535 316.52ZM257.996 312.238L257.59 311.324C259.387 310.52 261.195 309.668 262.961 308.797L263.402 309.695C261.625 310.574 259.809 311.426 257.996 312.238ZM124.438 311.984C122.625 311.164 120.805 310.297 119.023 309.414L119.469 308.516C121.238 309.398 123.047 310.258 124.848 311.07L124.438 311.984ZM268.711 306.957L268.234 306.074C269.973 305.137 271.715 304.156 273.41 303.16L273.918 304.023C272.211 305.027 270.461 306.016 268.711 306.957ZM113.711 306.645C111.961 305.691 110.211 304.695 108.504 303.68L109.012 302.82C110.711 303.828 112.453 304.816 114.188 305.762L113.711 306.645ZM279.012 300.898L278.477 300.055C280.133 299 281.797 297.895 283.426 296.766L283.992 297.59C282.355 298.723 280.68 299.836 279.012 300.898ZM103.41 300.531C101.738 299.453 100.066 298.332 98.4336 297.195L99.0039 296.371C100.625 297.504 102.289 298.617 103.949 299.688L103.41 300.531ZM288.848 294.102L288.25 293.301C289.828 292.121 291.41 290.895 292.949 289.656L293.574 290.438C292.027 291.684 290.438 292.918 288.848 294.102ZM93.5859 293.68C92.0039 292.484 90.4141 291.242 88.8711 289.988L89.5 289.211C91.0352 290.457 92.6133 291.691 94.1875 292.879L93.5859 293.68ZM298.164 286.598L297.512 285.844C299 284.551 300.488 283.211 301.93 281.863L302.613 282.598C301.16 283.953 299.664 285.301 298.164 286.598ZM84.293 286.129C82.7969 284.816 81.3047 283.465 79.8594 282.105L80.5469 281.375C81.9805 282.727 83.4648 284.074 84.9531 285.375L84.293 286.129ZM306.914 278.434L306.207 277.727C307.605 276.324 308.992 274.883 310.328 273.438L311.062 274.117C309.715 275.57 308.32 277.023 306.914 278.434ZM75.5781 277.922C74.1836 276.512 72.7969 275.055 71.4531 273.59L72.1875 272.91C73.5234 274.367 74.9062 275.816 76.2891 277.219L75.5781 277.922ZM315.047 269.652L314.289 268.996C315.578 267.496 316.859 265.957 318.09 264.414L318.871 265.039C317.633 266.59 316.344 268.141 315.047 269.652ZM67.4844 269.105C66.1992 267.598 64.9219 266.039 63.6875 264.484L64.4727 263.859C65.6953 265.41 66.9688 266.953 68.2461 268.457L67.4844 269.105ZM322.523 260.293L321.719 259.695C322.898 258.102 324.062 256.469 325.176 254.848L326 255.414C324.879 257.047 323.711 258.688 322.523 260.293ZM60.0586 259.723C58.8867 258.125 57.7227 256.48 56.6094 254.84L57.4375 254.273C58.543 255.906 59.6992 257.539 60.8672 259.133L60.0586 259.723ZM329.293 250.41L328.449 249.871C329.504 248.207 330.547 246.492 331.543 244.781L332.406 245.285C331.402 247.008 330.355 248.73 329.293 250.41ZM53.3398 249.828C52.2891 248.148 51.25 246.426 50.2578 244.707L51.125 244.203C52.1094 245.914 53.1406 247.625 54.1875 249.297L53.3398 249.828ZM335.328 240.051L334.445 239.578C335.379 237.828 336.293 236.043 337.156 234.27L338.055 234.711C337.184 236.492 336.27 238.289 335.328 240.051ZM47.3672 239.473C46.4375 237.719 45.5312 235.922 44.668 234.137L45.5664 233.703C46.4258 235.477 47.3281 237.262 48.25 239.004L47.3672 239.473ZM340.582 229.273L339.668 228.867C340.469 227.062 341.246 225.211 341.984 223.371L342.91 223.742C342.172 225.594 341.387 227.457 340.582 229.273ZM42.168 228.707C41.3711 226.891 40.5977 225.035 39.8711 223.195L40.8008 222.824C41.5234 224.656 42.293 226.5 43.082 228.305L42.168 228.707ZM345.031 218.129L344.09 217.793C344.758 215.926 345.398 214.023 345.992 212.137L346.945 212.438C346.348 214.336 345.703 216.25 345.031 218.129ZM37.7773 217.598C37.1172 215.723 36.4805 213.812 35.8906 211.914L36.8438 211.617C37.4336 213.5 38.0625 215.402 38.7227 217.266L37.7773 217.598ZM348.648 206.68L347.684 206.414C348.207 204.516 348.703 202.574 349.16 200.648L350.133 200.879C349.672 202.816 349.176 204.77 348.648 206.68ZM34.2109 206.164C33.6914 204.25 33.1992 202.301 32.75 200.367L33.7227 200.137C34.1719 202.059 34.6602 204 35.1758 205.902L34.2109 206.164Z" fill="#FF3F00"/>
<path d="M31.4766 194.402C31.2891 193.418 31.1055 192.43 30.9336 191.438L31.918 191.266C32.0898 192.25 32.2695 193.23 32.4609 194.211L31.4766 194.402Z" fill="#FF3F00"/>
<path d="M273.133 195.48L272.203 195.113C272.566 194.191 272.918 193.254 273.25 192.316L274.195 192.652C273.855 193.598 273.5 194.551 273.133 195.48Z" fill="#FF3F00"/>
<path d="M191.5 251.047C190.301 251.047 189.094 251.023 187.906 250.977L187.949 249.973C189.914 250.055 191.926 250.066 193.902 250.012L193.93 251.016C193.121 251.035 192.312 251.047 191.5 251.047ZM199.938 250.645L199.844 249.648C201.812 249.461 203.801 249.203 205.746 248.879L205.91 249.867C203.941 250.195 201.93 250.457 199.938 250.645ZM181.902 250.527C179.914 250.312 177.906 250.023 175.941 249.672L176.117 248.684C178.062 249.031 180.043 249.316 182.012 249.531L181.902 250.527ZM211.816 248.68L211.586 247.707C213.508 247.25 215.441 246.719 217.324 246.133L217.621 247.09C215.715 247.684 213.762 248.219 211.816 248.68ZM170.055 248.402C168.113 247.914 166.164 247.352 164.266 246.734L164.574 245.781C166.453 246.395 168.379 246.949 170.297 247.434L170.055 248.402ZM223.309 245.098L222.945 244.164C224.785 243.445 226.625 242.656 228.414 241.812L228.84 242.719C227.031 243.57 225.168 244.371 223.309 245.098ZM158.605 244.664C156.75 243.914 154.898 243.09 153.102 242.211L153.543 241.312C155.316 242.18 157.148 242.992 158.98 243.738L158.605 244.664ZM234.199 239.961L233.711 239.09C235.438 238.121 237.152 237.086 238.809 236.004L239.352 236.844C237.68 237.938 235.945 238.984 234.199 239.961ZM147.781 239.383C146.051 238.383 144.328 237.312 142.668 236.199L143.227 235.367C144.867 236.469 146.566 237.527 148.281 238.516L147.781 239.383ZM244.285 233.379L243.68 232.582C245.262 231.387 246.82 230.125 248.309 228.832L248.965 229.586C247.457 230.898 245.883 232.172 244.285 233.379ZM137.785 232.668C136.203 231.438 134.645 230.141 133.152 228.812L133.82 228.062C135.293 229.379 136.832 230.66 138.398 231.875L137.785 232.668ZM253.379 225.484L252.672 224.773C254.074 223.379 255.445 221.914 256.75 220.426L257.5 221.086C256.184 222.594 254.797 224.07 253.379 225.484ZM128.797 224.648C127.398 223.219 126.031 221.723 124.73 220.199L125.492 219.551C126.777 221.055 128.129 222.535 129.512 223.949L128.797 224.648ZM261.316 216.422L260.52 215.812C261.719 214.242 262.879 212.605 263.965 210.953L264.801 211.504C263.699 213.176 262.527 214.832 261.316 216.422ZM120.98 215.48C119.789 213.875 118.637 212.203 117.559 210.52L118.402 209.98C119.469 211.645 120.605 213.297 121.785 214.887L120.98 215.48ZM267.941 206.359L267.074 205.867C268.043 204.145 268.969 202.363 269.824 200.578L270.727 201.008C269.863 202.816 268.926 204.617 267.941 206.359ZM114.488 205.332C113.527 203.574 112.613 201.766 111.777 199.949L112.688 199.531C113.512 201.324 114.414 203.113 115.363 204.852L114.488 205.332Z" fill="#FF3F00"/>
<path d="M109.434 194.355C109.078 193.422 108.734 192.465 108.41 191.512L109.355 191.191C109.68 192.133 110.02 193.078 110.367 194L109.434 194.355Z" fill="#FF3F00"/>
<path d="M110.977 130.805L110.051 130.434C110.426 129.5 110.82 128.562 111.223 127.648L112.137 128.055C111.738 128.957 111.348 129.883 110.977 130.805Z" fill="#FF3F00"/>
<path d="M114.766 122.633L113.883 122.164C114.824 120.375 115.848 118.594 116.914 116.875L117.762 117.402C116.707 119.105 115.699 120.863 114.766 122.633ZM267.445 121.172C266.48 119.422 265.438 117.684 264.348 116.004L265.188 115.461C266.289 117.16 267.344 118.918 268.32 120.688L267.445 121.172ZM121.117 112.398L120.305 111.812C121.488 110.172 122.742 108.551 124.039 106.996L124.805 107.637C123.527 109.172 122.285 110.773 121.117 112.398ZM260.902 111.062C259.703 109.465 258.43 107.887 257.121 106.371L257.879 105.715C259.203 107.25 260.488 108.844 261.699 110.461L260.902 111.062ZM128.816 103.141L128.094 102.449C129.492 100.984 130.957 99.5547 132.453 98.1914L133.125 98.9297C131.648 100.277 130.195 101.695 128.816 103.141ZM253.027 101.953C251.621 100.535 250.145 99.1445 248.641 97.8281L249.301 97.0742C250.82 98.4062 252.312 99.8125 253.738 101.246L253.027 101.953ZM137.715 95.0312L137.094 94.2461C138.68 92.9883 140.328 91.7734 141.996 90.6289L142.562 91.457C140.914 92.5859 139.281 93.7891 137.715 95.0312ZM243.977 94.0156C242.387 92.8047 240.734 91.6328 239.062 90.5312L239.613 89.6953C241.305 90.8086 242.977 91.9922 244.582 93.2188L243.977 94.0156ZM147.645 88.2266L147.137 87.3633C148.879 86.3398 150.68 85.3633 152.492 84.4609L152.938 85.3594C151.148 86.25 149.367 87.2148 147.645 88.2266ZM233.922 87.3984C232.176 86.418 230.375 85.4883 228.574 84.6328L229 83.7266C230.824 84.5938 232.645 85.5352 234.41 86.5273L233.922 87.3984ZM158.414 82.8633L158.035 81.9375C159.902 81.168 161.82 80.4492 163.738 79.8125L164.055 80.7617C162.16 81.3945 160.262 82.1016 158.414 82.8633ZM223.047 82.2461C221.184 81.5156 219.273 80.8477 217.367 80.25L217.664 79.2969C219.59 79.8984 221.523 80.5742 223.41 81.3125L223.047 82.2461ZM169.828 79.0586L169.578 78.0859C171.535 77.582 173.535 77.1406 175.527 76.7773L175.707 77.7617C173.738 78.1211 171.762 78.5586 169.828 79.0586ZM211.562 78.6602C209.617 78.1992 207.633 77.8008 205.66 77.4766L205.82 76.4883C207.816 76.8164 209.824 77.2187 211.793 77.6836L211.562 78.6602ZM181.66 76.8789L181.547 75.8828C183.551 75.6563 185.594 75.4961 187.617 75.4062L187.66 76.4062C185.66 76.4961 183.641 76.6523 181.66 76.8789ZM199.691 76.707C197.703 76.5195 195.684 76.4023 193.68 76.3516L193.707 75.3516C195.73 75.3984 197.773 75.5195 199.781 75.7109L199.691 76.707Z" fill="#FF3F00"/>
<path d="M271.402 129.305C271.016 128.387 270.605 127.469 270.191 126.574L271.098 126.152C271.52 127.059 271.93 127.988 272.324 128.914L271.402 129.305Z" fill="#FF3F00"/>
<path d="M284.312 163.066C281.602 163.055 279.266 164.965 278.727 167.621C278.191 170.281 279.605 172.949 282.105 173.992C284.609 175.035 287.496 174.16 289.004 171.906C290.508 169.652 290.215 166.648 288.301 164.73C287.246 163.664 285.809 163.062 284.312 163.066Z" fill="#3F3D56"/>
<path d="M261.687 163.066C258.98 163.055 256.645 164.965 256.105 167.621C255.57 170.281 256.984 172.949 259.484 173.992C261.988 175.035 264.875 174.16 266.383 171.906C267.887 169.652 267.594 166.648 265.68 164.73C264.625 163.664 263.187 163.066 261.687 163.066Z" fill="#3F3D56"/>
<path d="M273 131.645C257.262 131.645 244.5 144.422 244.5 160.18C244.5 175.941 257.262 188.719 273 188.719C288.738 188.719 301.5 175.941 301.5 160.18C301.5 144.422 288.738 131.645 273 131.645ZM278.539 143.543C279.27 143.539 279.973 143.824 280.492 144.344C281.008 144.863 281.297 145.566 281.289 146.301C281.297 147.426 280.625 148.441 279.59 148.875C278.551 149.309 277.355 149.074 276.562 148.277C275.77 147.484 275.531 146.285 275.965 145.25C276.398 144.211 277.414 143.539 278.539 143.543ZM261.688 176.816C257.227 176.82 253.609 173.199 253.605 168.73C253.605 164.262 257.223 160.641 261.688 160.641C266.148 160.641 269.766 164.266 269.762 168.734C269.75 173.191 266.141 176.805 261.688 176.816ZM274.383 160.703V168.5C274.383 169.266 273.766 169.887 273 169.887C272.234 169.887 271.617 169.266 271.617 168.5V162.789C271.617 161.656 270.23 161.402 266.293 159.133C265.781 158.828 264.691 158.293 264.691 156.785C264.699 156.059 264.988 155.363 265.496 154.844L271.703 148.855C272.297 148.25 273.145 147.961 273.984 148.074C274.828 148.188 275.566 148.688 275.984 149.43L278.539 154.637H282.691C283.457 154.637 284.074 155.258 284.074 156.023C284.074 156.785 283.457 157.406 282.691 157.41H277.727C276.801 157.41 276.055 155.414 274.438 152.945L270.203 157.41C271.754 158.621 274.383 159.559 274.383 160.703ZM284.312 176.809C279.852 176.809 276.238 173.191 276.238 168.727C276.238 164.262 279.852 160.641 284.312 160.641C288.77 160.641 292.383 164.262 292.383 168.727C292.371 173.184 288.766 176.797 284.312 176.809Z" fill="#3F3D56"/>
<path d="M354 131.645C338.262 131.645 325.5 144.422 325.5 160.18C325.5 175.941 338.262 188.719 354 188.719C369.738 188.719 382.5 175.941 382.5 160.18C382.5 144.422 369.738 131.645 354 131.645ZM346.445 152.047C348.879 152.102 350.812 154.113 350.773 156.551C350.738 158.988 348.742 160.938 346.309 160.918C343.875 160.898 341.91 158.918 341.91 156.48C341.922 155.289 342.41 154.152 343.258 153.32C344.109 152.488 345.258 152.031 346.445 152.047ZM370.617 171.273H367.594V166.836H340.406V171.273H337.383V149.09H340.406V162.398H352.484V152.047H364.574C367.875 152.008 370.578 154.66 370.617 157.965V171.273Z" fill="#3F3D56"/>
<path d="M38.5391 152.555H30.0586C29.8672 152.559 29.7109 152.711 29.7109 152.902V165.035C29.7109 165.227 29.8672 165.379 30.0586 165.379H38.5391C39.3008 165.379 39.9219 164.758 39.9219 163.992V153.941C39.9219 153.18 39.3008 152.559 38.5391 152.555Z" fill="#3F3D56"/>
<path d="M36.6328 167.98C35.5352 168.07 34.6953 169.004 34.7266 170.113C34.7539 171.219 35.6445 172.105 36.7461 172.137C37.8516 172.168 38.7852 171.328 38.875 170.223C38.9258 169.617 38.7031 169.016 38.2734 168.586C37.8398 168.152 37.2422 167.93 36.6328 167.98Z" fill="#3F3D56"/>
<path d="M20.0273 167.98C18.9258 168.07 18.0898 169.004 18.1172 170.113C18.1484 171.219 19.0352 172.105 20.1406 172.137C21.2461 172.168 22.1797 171.328 22.2695 170.223C22.3164 169.617 22.0977 169.016 21.6641 168.586C21.2344 168.152 20.6367 167.93 20.0273 167.98Z" fill="#3F3D56"/>
<path d="M26.9414 152.555H18.4805C17.707 152.559 17.0781 153.187 17.0781 153.961V163.977C17.0781 164.75 17.707 165.379 18.4805 165.379H26.9414C27.1328 165.379 27.2891 165.227 27.2891 165.035V152.902C27.2891 152.711 27.1328 152.559 26.9414 152.555Z" fill="#3F3D56"/>
<path d="M28.5 131.645C12.7617 131.645 0 144.422 0 160.18C0 175.941 12.7617 188.719 28.5 188.719C44.2383 188.719 57 175.941 57 160.18C57 144.422 44.2383 131.645 28.5 131.645ZM42.3477 171.793C42.3398 173.703 40.793 175.254 38.8828 175.258H18.1172C16.207 175.254 14.6602 173.703 14.6523 171.793V147.879C14.6602 146.348 15.8945 145.109 17.4219 145.105H39.5781C41.1055 145.109 42.3398 146.348 42.3477 147.879V171.793Z" fill="#3F3D56"/>
<path d="M38.625 147.531H18.375C17.9219 147.5 17.4883 147.723 17.2539 148.113C17.0195 148.5 17.0195 148.988 17.2539 149.375C17.4883 149.766 17.9219 149.988 18.375 149.957H38.625C39.0781 149.988 39.5117 149.766 39.7461 149.375C39.9805 148.988 39.9805 148.5 39.7461 148.113C39.5117 147.723 39.0781 147.5 38.625 147.531Z" fill="#3F3D56"/>
<path d="M113.809 160.961C113.238 160.961 112.77 161.809 112.77 162.867C112.77 163.926 113.238 164.773 113.809 164.773C114.379 164.773 114.848 163.926 114.848 162.867C114.848 161.809 114.379 160.961 113.809 160.961Z" fill="#3F3D56"/>
<path d="M106.191 160.961C105.621 160.961 105.152 161.809 105.152 162.867C105.152 163.926 105.621 164.773 106.191 164.773C106.762 164.773 107.23 163.926 107.23 162.867C107.23 161.809 106.762 160.961 106.191 160.961Z" fill="#3F3D56"/>
<path d="M110 131.645C94.2617 131.645 81.5 144.422 81.5 160.18C81.5 175.941 94.2617 188.719 110 188.719C125.738 188.719 138.5 175.941 138.5 160.18C138.5 144.422 125.738 131.645 110 131.645ZM96.6719 159.211L98.25 150.824C98.6562 148.543 99.7109 146.75 101.691 146.75H104.668L104.844 146.066C105.152 144.836 106.258 143.977 107.523 143.977H112.457C113.723 143.977 114.824 144.832 115.141 146.059L115.312 146.75H118.309C120.246 146.75 121.277 148.508 121.762 150.816V150.824L123.344 159.219C123.371 159.348 123.32 159.48 123.219 159.559C123.117 159.641 122.977 159.656 122.859 159.602L120.66 158.586C120.555 158.543 120.48 158.449 120.461 158.336L119.062 150.918C118.801 149.965 118.438 149.531 117.668 149.531H102.34C101.578 149.531 101.164 149.992 100.949 150.918L99.5469 158.336C99.5234 158.445 99.4492 158.539 99.3477 158.586L97.1562 159.594C97.0391 159.645 96.9023 159.629 96.8008 159.547C96.6992 159.469 96.6484 159.34 96.6719 159.211ZM127.195 164.609L122.461 176.383C120.082 176.383 117.555 174.477 117.555 174.477C115.996 175.266 112.961 175.961 110.691 176.09C110.449 176.098 110.215 176.109 110 176.109C109.785 176.109 109.551 176.109 109.309 176.09C107.039 175.961 104.004 175.258 102.445 174.477C102.445 174.477 99.918 176.383 97.5391 176.383L92.8047 164.609C92.7305 164.426 92.6953 164.227 92.6914 164.027C92.6914 163.418 93.0469 162.863 93.6016 162.609L109.707 155.199C109.891 155.113 110.102 155.113 110.285 155.199L126.398 162.609C126.953 162.863 127.309 163.418 127.309 164.027C127.305 164.227 127.27 164.426 127.195 164.609Z" fill="#3F3D56"/>
<path d="M191.5 131.645C175.762 131.645 163 144.422 163 160.18C163 175.941 175.762 188.719 191.5 188.719C207.238 188.719 220 175.941 220 160.18C220 144.422 207.238 131.645 191.5 131.645ZM204.629 162.961C204.336 162.961 203.355 162.953 203.07 162.938L197.453 162.789C197.395 162.789 197.34 162.816 197.309 162.867L188.879 175.484C188.625 175.883 188.184 176.125 187.711 176.125H185.66C185.176 176.125 185.012 175.641 185.184 175.188L189.52 162.809C189.539 162.754 189.531 162.695 189.504 162.648C189.473 162.602 189.418 162.574 189.363 162.574L178.832 162.34C178.609 162.332 178.398 162.434 178.262 162.609L175 166.566C174.734 166.898 174.332 167.094 173.906 167.098H172.461C172.352 167.098 172.246 167.043 172.18 166.953C172.113 166.859 172.098 166.742 172.133 166.637L173.855 160.684C173.984 160.352 173.984 159.984 173.855 159.652L172.133 153.699C172.098 153.594 172.113 153.477 172.18 153.387C172.246 153.293 172.352 153.238 172.461 153.242H173.918C174.344 153.238 174.746 153.434 175.008 153.77L178.207 157.668C178.344 157.844 178.559 157.945 178.781 157.938L189.371 157.781C189.43 157.781 189.48 157.754 189.512 157.707C189.543 157.66 189.551 157.598 189.527 157.547L185.191 145.172C185.02 144.723 185.184 144.238 185.668 144.238H187.719C188.191 144.238 188.633 144.48 188.887 144.879L197.309 157.504C197.34 157.555 197.395 157.586 197.453 157.582L203.07 157.434C203.348 157.418 204.336 157.41 204.629 157.41C208.473 157.41 210.887 158.656 210.887 160.191C210.887 161.723 208.461 162.961 204.629 162.961Z" fill="#3F3D56"/>
<path d="M32.8359 256.371C29.5234 256.371 26.8359 253.684 26.8359 250.363C26.8359 247.047 29.5234 244.355 32.8359 244.355C36.1484 244.355 38.8359 247.047 38.8359 250.363C38.832 253.68 36.1484 256.367 32.8359 256.371ZM32.8359 245.359C30.0742 245.359 27.8359 247.598 27.8359 250.363C27.8359 253.129 30.0742 255.371 32.8359 255.371C35.5977 255.371 37.8359 253.129 37.8359 250.363C37.832 247.602 35.5977 245.359 32.8359 245.359Z" fill="#F0F0F0"/>
<path d="M159.336 121.699C156.023 121.699 153.336 119.012 153.336 115.691C153.336 112.375 156.023 109.684 159.336 109.684C162.648 109.684 165.336 112.375 165.336 115.691C165.332 119.008 162.648 121.695 159.336 121.699ZM159.336 110.688C156.574 110.688 154.336 112.926 154.336 115.691C154.336 118.457 156.574 120.699 159.336 120.699C162.098 120.699 164.336 118.457 164.336 115.691C164.332 112.93 162.098 110.688 159.336 110.688Z" fill="#F0F0F0"/>
<path d="M271.07 286.594L264.34 279.367L271.559 272.629L278.289 279.855L271.07 286.594ZM265.414 279.406L271.109 285.52L277.219 279.816L271.52 273.703L265.414 279.406Z" fill="#F0F0F0"/>
</g>
<defs>
<clipPath id="clip0_76_2">
<rect width="511" height="392" fill="white"/>
</clipPath>
</defs>
</svg>
